<?xml version="1.0" standalone="no"?>
<!DOCTYPE svg PUBLIC "-//W3C//DTD SVG 20010904//EN"
 "http://www.w3.org/TR/2001/REC-SVG-20010904/DTD/svg10.dtd">
<svg version="1.0" xmlns="http://www.w3.org/2000/svg"
 width="512.000000pt" height="512.000000pt" viewBox="0 0 512.000000 512.000000"
 preserveAspectRatio="xMidYMid meet">
<metadata>
Created by potrace 1.14, written by Peter Selinger 2001-2017
</metadata>
<g transform="translate(0.000000,512.000000) scale(0.100000,-0.100000)"
fill="#000000" stroke="none">
<path d="M2368 5115 c-2 -1 -34 -6 -73 -9 -77 -8 -107 -12 -145 -20 -13 -3
-42 -8 -65 -12 -46 -7 -70 -12 -70 -14 0 -1 -11 -4 -25 -6 -51 -9 -189 -48
-245 -70 -11 -4 -22 -8 -25 -9 -20 -5 -87 -29 -95 -34 -5 -3 -12 -6 -15 -7
-43 -13 -78 -29 -210 -96 -85 -43 -156 -83 -158 -88 -2 -6 -8 -10 -14 -10 -8
0 -184 -115 -198 -130 -3 -3 -23 -18 -44 -34 -109 -82 -269 -236 -392 -379
-63 -73 -204 -271 -204 -287 0 -5 -3 -10 -8 -10 -4 0 -13 -15 -21 -32 -8 -18
-18 -35 -21 -38 -18 -12 -165 -326 -175 -370 -2 -8 -12 -36 -24 -63 -11 -26
-21 -51 -21 -55 0 -4 -5 -25 -11 -47 -6 -22 -13 -47 -14 -55 -2 -8 -4 -15 -5
-15 -1 0 -3 -7 -5 -15 -2 -8 -9 -33 -15 -55 -5 -22 -12 -56 -16 -75 -3 -19 -7
-42 -10 -51 -2 -9 -7 -34 -10 -55 -3 -22 -7 -50 -9 -64 -16 -111 -20 -170 -20
-350 0 -186 7 -307 21 -352 3 -9 7 -34 9 -55 7 -68 53 -274 64 -283 3 -3 8
-21 9 -40 2 -19 7 -39 11 -45 4 -5 13 -30 21 -55 7 -25 18 -54 24 -65 5 -11
11 -28 13 -38 4 -22 140 -309 151 -317 4 -3 13 -16 20 -30 21 -44 48 -88 76
-125 15 -19 23 -35 19 -35 -4 0 -3 -4 3 -8 5 -4 36 -42 67 -85 70 -95 89 -118
150 -180 26 -28 47 -51 47 -53 0 -1 27 -29 61 -61 33 -32 76 -73 94 -90 18
-18 36 -33 39 -33 4 0 17 -10 30 -23 33 -32 55 -48 111 -87 28 -18 52 -36 55
-40 3 -3 30 -21 60 -40 30 -19 57 -37 60 -40 13 -14 240 -131 320 -165 36 -15
80 -34 99 -42 18 -8 39 -16 45 -18 6 -1 18 -5 26 -8 8 -3 40 -13 70 -22 30 -9
62 -19 70 -22 8 -4 17 -7 20 -8 86 -22 117 -29 128 -27 6 2 12 -1 12 -5 0 -4
10 -9 23 -9 33 -2 96 -12 105 -18 5 -3 33 -8 63 -11 30 -3 77 -8 104 -11 71
-9 418 -9 495 -2 62 6 132 15 175 23 80 14 231 49 290 67 38 11 76 21 83 21 6
0 12 4 12 9 0 5 6 8 13 7 12 -2 23 1 95 32 23 10 42 16 42 13 0 -2 19 6 43 18
23 12 44 22 47 23 3 0 15 6 26 13 12 6 24 8 28 5 3 -3 6 -1 6 6 0 7 4 10 9 7
5 -4 11 -3 13 1 1 5 28 20 58 35 75 37 134 71 138 81 2 4 9 7 17 7 7 0 18 7
25 15 7 8 16 12 21 9 5 -3 9 -1 9 4 0 6 16 20 36 31 37 22 174 123 205 151 9
8 32 28 50 44 125 108 257 249 357 381 29 39 62 83 74 98 11 15 30 45 41 65
11 20 33 56 49 80 16 23 25 42 21 42 -4 0 -3 4 3 8 16 9 136 260 165 342 12
36 27 71 32 77 5 7 7 13 3 13 -3 0 3 24 14 53 16 42 49 166 65 247 2 8 4 15 5
15 1 0 3 11 5 25 3 27 13 89 20 130 21 113 27 466 11 605 -5 44 -10 91 -12
105 -1 14 -3 25 -4 25 -1 0 -3 14 -5 30 -2 17 -11 64 -20 105 -9 41 -18 85
-21 97 -2 12 -9 35 -15 50 -6 16 -10 29 -10 31 3 7 -13 59 -22 70 -5 6 -7 12
-4 12 17 0 -93 265 -169 408 -76 144 -214 356 -258 397 -6 6 -23 26 -37 45
-26 35 -51 63 -134 150 -91 96 -254 240 -273 240 -5 0 -12 7 -16 15 -3 8 -13
15 -21 15 -9 0 -13 5 -10 10 3 6 1 10 -5 10 -10 0 -67 36 -80 50 -19 21 -256
157 -317 182 -18 7 -33 16 -33 20 0 5 -7 8 -15 8 -8 0 -23 4 -33 9 -41 22
-153 66 -192 76 -3 1 -14 5 -25 9 -52 20 -201 63 -240 70 -16 3 -71 14 -122
24 -50 10 -98 17 -107 16 -9 -1 -16 1 -16 4 0 4 -15 8 -32 9 -64 4 -487 11
-490 8z"/>
</g>
</svg>
