<svg width="136" height="136" viewBox="0 0 136 136" fill="none" xmlns="http://www.w3.org/2000/svg">
<path fill-rule="evenodd" clip-rule="evenodd" d="M81.232 14.7787L86.3996 15.7743L80.0988 7.39534L88.4805 2.98014L83.4489 2.01077L75.9637 6.06664L76.9724 0.763046L73.0117 0L70.5908 12.7286L74.5515 13.4917L75.6936 7.48664L81.232 14.7787ZM63.579 13.507L59.5349 13.9432L58.4874 4.1056L52.9805 4.69957L52.656 1.65129L67.7309 0.0252754L68.0555 3.07356L62.5314 3.66939L63.579 13.507ZM33.3659 16.5808C32.3979 14.4788 31.5199 10.3767 38.916 6.92676L39.5912 6.6118C46.9401 3.18387 49.514 6.49499 50.482 8.59694L50.7003 9.07107C51.6537 11.1414 52.5597 15.3457 45.195 18.781L44.5198 19.0959C37.1238 22.5458 34.5376 19.1253 33.5842 17.0549L33.3659 16.5808ZM43.5323 16.0816C47.458 14.2504 47.4292 12.0752 46.8033 10.716L46.7014 10.4948C46.0828 9.15143 44.5128 7.77188 40.5557 9.61769C36.5358 11.4928 36.6297 13.5609 37.2483 14.9042L37.3357 15.0939C37.9543 16.4372 39.5752 17.9274 43.5323 16.0816ZM104.829 15.8569C103.733 17.8939 101.585 18.9218 97.537 16.7145L92.5913 14.0177L90.5466 17.816L87.001 15.8826L93.1351 4.48781L101.626 9.11804C105.705 11.3419 106.033 13.6209 104.912 15.7038L104.829 15.8569ZM100.172 11.6732L95.2874 9.00954L93.9682 11.46L98.853 14.1237C99.9638 14.7294 100.719 14.6063 101.14 13.8252L101.164 13.7793C101.585 12.9982 101.313 12.2955 100.172 11.6732ZM111.415 20.6356L114.384 18.02L111.728 14.9659L102.039 23.5011L107.989 30.3433C111.522 34.4067 113.828 34.0427 115.651 32.4366L115.781 32.3219C117.579 30.7387 118.22 28.4609 114.72 24.4369L111.415 20.6356ZM106.883 24.6279L109.24 22.5515L112.466 26.2609C113.777 27.7683 113.637 28.586 112.972 29.1711L112.933 29.2055C112.295 29.7677 111.419 29.8448 110.108 28.3374L106.883 24.6279ZM125.429 30.7214L122.774 27.6673L113.084 36.2025L115.74 39.2566L125.429 30.7214ZM119.747 49.5679L118.294 45.7446L127.476 42.21L125.497 37.0038L128.342 35.9085L133.758 50.1606L130.913 51.2559L128.929 46.0333L119.747 49.5679ZM131.744 59.7116L135.69 59.6381L135.615 55.5802L122.741 55.82L122.908 64.9112C123.007 70.3101 125.003 71.5273 127.425 71.4822L127.598 71.479C129.986 71.4345 131.935 70.1089 131.837 64.7622L131.744 59.7116ZM125.722 59.8238L128.854 59.7654L128.945 64.6942C128.982 66.697 128.351 67.2314 127.469 67.2478L127.417 67.2488C126.569 67.2646 125.85 66.7553 125.813 64.7525L125.722 59.8238ZM136 76.5142L135.925 72.4563L123.051 72.6961L123.126 76.754L136 76.5142ZM123.889 87.0194L121.434 81.9611L123.1 77.2514L127.083 85.5199L135.185 81.7296L133.373 86.8495L128.6 89.0219L130.935 93.7417L129.275 98.4349L125.429 90.4557L117.098 94.2193L118.799 89.4112L123.889 87.0194ZM96.7926 115.91L86.4444 120.031C82.5658 121.575 82.1051 123.575 82.8501 125.471L82.9392 125.697C83.7733 127.819 85.8013 127.817 86.7048 127.701C86.1955 128.11 85.1114 129.235 85.729 130.806L85.8182 131.033C86.3785 132.458 87.8501 133.408 91.278 132.043L101.53 127.961L96.7926 115.91ZM90.9221 129.244C89.8761 129.66 89.4403 129.309 89.2429 128.807L89.2302 128.775C89.0391 128.289 89.1056 127.7 90.1517 127.284L96.0098 124.951L96.7802 126.911L90.9221 129.244ZM88.8239 124.853C87.5846 125.346 87.1077 124.843 86.9039 124.325L86.8784 124.26C86.6874 123.774 86.6551 122.981 87.8943 122.488L94.0742 120.027L95.0038 122.392L88.8239 124.853ZM75.1363 128.085L70.2621 128.338L72.9997 133.062L75.1363 128.085ZM62.9564 123.414L67.2948 123.189L68.6259 125.492L76.4212 125.088L77.458 122.662L81.5544 122.449L75.7186 135.729L70.4987 136L62.9564 123.414ZM52.2548 120.631L47.1678 119.279L52.8791 128.076L44.2145 131.898L49.1677 133.215L56.9132 129.688L55.5432 134.909L59.4421 135.945L62.7301 123.415L58.8311 122.379L57.28 128.29L52.2548 120.631ZM38.8928 120.623L34.7962 117.953L34.2633 123.396L38.8928 120.623ZM31.7437 109.655L35.39 112.032L35.1274 114.683L41.6791 118.953L43.9319 117.599L47.3748 119.843L34.9131 127.161L30.526 124.301L31.7437 109.655ZM31.4563 109.642L28.9678 106.448L24.9775 109.598L19.6373 102.744L23.6277 99.5949L21.1392 96.4012L11.0067 104.399L13.4952 107.592L17.1859 104.679L22.526 111.533L18.8353 114.446L21.3238 117.639L31.4563 109.642ZM9.432 79.5605C10.9745 79.0398 14.7948 79.1099 17.1336 86.1288L17.3592 86.8059C19.7311 93.9239 16.1452 96.3652 13.9792 97.0963L13.5033 97.2569C11.2881 98.0046 7.14557 98.3372 4.7242 91.0706L4.49858 90.3935C2.12674 83.2756 5.13831 81.0281 6.5659 80.5462L6.7464 80.4853L8.10567 84.5645L8.10121 84.5677C7.79537 84.785 6.27546 85.8651 7.56779 89.7434C8.79498 93.4262 10.7166 93.7146 12.2426 93.1995L12.4395 93.1331C13.8835 92.6457 15.4623 91.0288 14.2681 87.4451C13.0064 83.6586 11.1176 83.6921 10.6681 83.7001C10.6452 83.7005 10.6259 83.7008 10.6108 83.7006L9.2515 79.6214L9.432 79.5605ZM13.9614 64.2946L14.0195 60.2364L1.14421 60.0495L1.08606 64.1077L9.49316 72.9227L0.961533 72.7989L0.903386 76.8571L13.7787 77.044L13.8369 72.9858L5.46436 64.1713L13.9614 64.2946ZM19.6653 42.5968L18.2849 46.4103L10.3004 43.4828L15.3288 54.5773L13.9485 58.3908L1.84962 53.9548L3.22995 50.1413L11.2471 53.0807L6.1861 41.9743L7.56643 38.1608L19.6653 42.5968ZM2.78725 40.932C3.60035 41.2301 5.13732 42.6835 4.15391 45.4004L3.95249 45.9569C2.88022 48.9193 0.845617 48.8407 0.0325233 48.5426L0 48.5307L1.01895 45.7156C1.23036 45.7931 1.85284 45.8545 2.17275 44.9707C2.4808 44.1196 1.97088 43.7472 1.75947 43.6697L2.75473 40.9201L2.78725 40.932Z" fill="#C31E54"/>
</svg>
